<svg width="18" height="10" viewBox="0 0 18 10" fill="none" xmlns="http://www.w3.org/2000/svg">
<path fill-rule="evenodd" clip-rule="evenodd" d="M12.293 0.293C12.4805 0.105529 12.7348 0.000213623 13 0.000213623C13.2652 0.000213623 13.5195 0.105529 13.707 0.293L17.707 4.293C17.8945 4.48053 17.9998 4.73484 17.9998 5C17.9998 5.26516 17.8945 5.51947 17.707 5.707L13.707 9.707C13.5184 9.88916 13.2658 9.98995 13.0036 9.98767C12.7414 9.9854 12.4906 9.88023 12.3052 9.69482C12.1198 9.50941 12.0146 9.2586 12.0123 8.9964C12.01 8.7342 12.1108 8.4816 12.293 8.293L14.586 6H1C0.734784 6 0.48043 5.89464 0.292893 5.70711C0.105357 5.51957 0 5.26522 0 5C0 4.73478 0.105357 4.48043 0.292893 4.29289C0.48043 4.10536 0.734784 4 1 4H14.586L12.293 1.707C12.1055 1.51947 12.0002 1.26516 12.0002 1C12.0002 0.734836 12.1055 0.480528 12.293 0.293Z" fill="#332200"/>
</svg>
